<svg id="visual" viewBox="0 0 675 900" width="675" height="900" xmlns="http://www.w3.org/2000/svg" xmlns:xlink="http://www.w3.org/1999/xlink" version="1.1"><rect x="0" y="0" width="675" height="900" fill="#7e98b0"></rect><path d="M0 475L22.5 485.3C45 495.7 90 516.3 135 531.3C180 546.3 225 555.7 270 549.8C315 544 360 523 405 506.7C450 490.3 495 478.7 540 477.3C585 476 630 485 652.5 489.5L675 494L675 901L652.5 901C630 901 585 901 540 901C495 901 450 901 405 901C360 901 315 901 270 901C225 901 180 901 135 901C90 901 45 901 22.5 901L0 901Z" fill="#8eaedc"></path><path d="M0 531L22.5 534.7C45 538.3 90 545.7 135 566.3C180 587 225 621 270 639.8C315 658.7 360 662.3 405 652.2C450 642 495 618 540 605.8C585 593.7 630 593.3 652.5 593.2L675 593L675 901L652.5 901C630 901 585 901 540 901C495 901 450 901 405 901C360 901 315 901 270 901C225 901 180 901 135 901C90 901 45 901 22.5 901L0 901Z" fill="#a1b1de"></path><path d="M0 612L22.5 615.5C45 619 90 626 135 634.8C180 643.7 225 654.3 270 653.2C315 652 360 639 405 633.5C450 628 495 630 540 626.5C585 623 630 614 652.5 609.5L675 605L675 901L652.5 901C630 901 585 901 540 901C495 901 450 901 405 901C360 901 315 901 270 901C225 901 180 901 135 901C90 901 45 901 22.5 901L0 901Z" fill="#b2b5df"></path><path d="M0 721L22.5 722.2C45 723.3 90 725.7 135 733.5C180 741.3 225 754.7 270 763.8C315 773 360 778 405 759C450 740 495 697 540 687C585 677 630 700 652.5 711.5L675 723L675 901L652.5 901C630 901 585 901 540 901C495 901 450 901 405 901C360 901 315 901 270 901C225 901 180 901 135 901C90 901 45 901 22.5 901L0 901Z" fill="#c1b9df"></path><path d="M0 722L22.5 731.5C45 741 90 760 135 765.8C180 771.7 225 764.3 270 756.2C315 748 360 739 405 731.5C450 724 495 718 540 730.7C585 743.3 630 774.7 652.5 790.3L675 806L675 901L652.5 901C630 901 585 901 540 901C495 901 450 901 405 901C360 901 315 901 270 901C225 901 180 901 135 901C90 901 45 901 22.5 901L0 901Z" fill="#cebede"></path><path d="M0 797L22.5 811.5C45 826 90 855 135 851.2C180 847.3 225 810.7 270 800.3C315 790 360 806 405 821.7C450 837.3 495 852.7 540 847C585 841.3 630 814.7 652.5 801.3L675 788L675 901L652.5 901C630 901 585 901 540 901C495 901 450 901 405 901C360 901 315 901 270 901C225 901 180 901 135 901C90 901 45 901 22.5 901L0 901Z" fill="#d9c4de"></path></svg>