<svg id="visual" viewBox="0 0 960 540" width="960" height="540" xmlns="http://www.w3.org/2000/svg" xmlns:xlink="http://www.w3.org/1999/xlink" version="1.1"><rect x="0" y="0" width="960" height="540" fill="#7e98b0"></rect><path d="M0 285L32 291.2C64 297.3 128 309.7 192 318.7C256 327.7 320 333.3 384 329.8C448 326.3 512 313.7 576 303.8C640 294 704 287 768 286.2C832 285.3 896 290.7 928 293.3L960 296L960 541L928 541C896 541 832 541 768 541C704 541 640 541 576 541C512 541 448 541 384 541C320 541 256 541 192 541C128 541 64 541 32 541L0 541Z" fill="#8eaedc"></path><path d="M0 318L32 320.2C64 322.3 128 326.7 192 339.2C256 351.7 320 372.3 384 383.7C448 395 512 397 576 390.8C640 384.7 704 370.3 768 363C832 355.7 896 355.3 928 355.2L960 355L960 541L928 541C896 541 832 541 768 541C704 541 640 541 576 541C512 541 448 541 384 541C320 541 256 541 192 541C128 541 64 541 32 541L0 541Z" fill="#a1b1de"></path><path d="M0 367L32 369.2C64 371.3 128 375.7 192 380.8C256 386 320 392 384 391.2C448 390.3 512 382.7 576 379.5C640 376.3 704 377.7 768 375.7C832 373.7 896 368.3 928 365.7L960 363L960 541L928 541C896 541 832 541 768 541C704 541 640 541 576 541C512 541 448 541 384 541C320 541 256 541 192 541C128 541 64 541 32 541L0 541Z" fill="#b2b5df"></path><path d="M0 432L32 432.7C64 433.3 128 434.7 192 439.3C256 444 320 452 384 457.5C448 463 512 466 576 454.7C640 443.3 704 417.7 768 411.7C832 405.7 896 419.3 928 426.2L960 433L960 541L928 541C896 541 832 541 768 541C704 541 640 541 576 541C512 541 448 541 384 541C320 541 256 541 192 541C128 541 64 541 32 541L0 541Z" fill="#c1b9df"></path><path d="M0 433L32 438.7C64 444.3 128 455.7 192 459.2C256 462.7 320 458.3 384 453.3C448 448.3 512 442.7 576 438.2C640 433.7 704 430.3 768 438C832 445.7 896 464.3 928 473.7L960 483L960 541L928 541C896 541 832 541 768 541C704 541 640 541 576 541C512 541 448 541 384 541C320 541 256 541 192 541C128 541 64 541 32 541L0 541Z" fill="#cebede"></path><path d="M0 478L32 486.7C64 495.3 128 512.7 192 510.3C256 508 320 486 384 479.8C448 473.7 512 483.3 576 492.7C640 502 704 511 768 507.5C832 504 896 488 928 480L960 472L960 541L928 541C896 541 832 541 768 541C704 541 640 541 576 541C512 541 448 541 384 541C320 541 256 541 192 541C128 541 64 541 32 541L0 541Z" fill="#d9c4de"></path></svg>