<svg id="visual" viewBox="0 0 450 900" width="450" height="900" xmlns="http://www.w3.org/2000/svg" xmlns:xlink="http://www.w3.org/1999/xlink" version="1.1"><rect x="0" y="0" width="450" height="900" fill="#7e98b0"></rect><path d="M0 475L15 485.3C30 495.7 60 516.3 90 531.3C120 546.3 150 555.7 180 549.8C210 544 240 523 270 506.7C300 490.3 330 478.7 360 477.3C390 476 420 485 435 489.5L450 494L450 901L435 901C420 901 390 901 360 901C330 901 300 901 270 901C240 901 210 901 180 901C150 901 120 901 90 901C60 901 30 901 15 901L0 901Z" fill="#8eaedc"></path><path d="M0 531L15 534.7C30 538.3 60 545.7 90 566.3C120 587 150 621 180 639.8C210 658.7 240 662.3 270 652.2C300 642 330 618 360 605.8C390 593.7 420 593.3 435 593.2L450 593L450 901L435 901C420 901 390 901 360 901C330 901 300 901 270 901C240 901 210 901 180 901C150 901 120 901 90 901C60 901 30 901 15 901L0 901Z" fill="#a1b1de"></path><path d="M0 612L15 615.5C30 619 60 626 90 634.8C120 643.7 150 654.3 180 653.2C210 652 240 639 270 633.5C300 628 330 630 360 626.5C390 623 420 614 435 609.5L450 605L450 901L435 901C420 901 390 901 360 901C330 901 300 901 270 901C240 901 210 901 180 901C150 901 120 901 90 901C60 901 30 901 15 901L0 901Z" fill="#b2b5df"></path><path d="M0 721L15 722.2C30 723.3 60 725.7 90 733.5C120 741.3 150 754.7 180 763.8C210 773 240 778 270 759C300 740 330 697 360 687C390 677 420 700 435 711.5L450 723L450 901L435 901C420 901 390 901 360 901C330 901 300 901 270 901C240 901 210 901 180 901C150 901 120 901 90 901C60 901 30 901 15 901L0 901Z" fill="#c1b9df"></path><path d="M0 722L15 731.5C30 741 60 760 90 765.8C120 771.7 150 764.3 180 756.2C210 748 240 739 270 731.5C300 724 330 718 360 730.7C390 743.3 420 774.7 435 790.3L450 806L450 901L435 901C420 901 390 901 360 901C330 901 300 901 270 901C240 901 210 901 180 901C150 901 120 901 90 901C60 901 30 901 15 901L0 901Z" fill="#cebede"></path><path d="M0 797L15 811.5C30 826 60 855 90 851.2C120 847.3 150 810.7 180 800.3C210 790 240 806 270 821.7C300 837.3 330 852.7 360 847C390 841.3 420 814.7 435 801.3L450 788L450 901L435 901C420 901 390 901 360 901C330 901 300 901 270 901C240 901 210 901 180 901C150 901 120 901 90 901C60 901 30 901 15 901L0 901Z" fill="#d9c4de"></path></svg>